<svg id="Group_48728" data-name="Group 48728" xmlns="http://www.w3.org/2000/svg" xmlns:xlink="http://www.w3.org/1999/xlink" width="173.918" height="39.328" viewBox="0 0 173.918 39.328">
  <defs>
    <clipPath id="clip-path">
      <rect id="Rectangle_2" data-name="Rectangle 2" width="173.918" height="39.328" fill="none"/>
    </clipPath>
  </defs>
  <g id="Group_1" data-name="Group 1" clip-path="url(#clip-path)">
    <path id="Path_1" data-name="Path 1" d="M231.854,72.526a5.508,5.508,0,0,1-2.29-1.821,4.664,4.664,0,0,1-.857-2.692h2.6a3.419,3.419,0,0,0,1.085,2.21,3.891,3.891,0,0,0,2.772.9,4.051,4.051,0,0,0,2.745-.87,2.825,2.825,0,0,0,1-2.237,2.54,2.54,0,0,0-.589-1.741,3.768,3.768,0,0,0-1.473-1.018,23.1,23.1,0,0,0-2.384-.75,20.978,20.978,0,0,1-2.96-.964,4.762,4.762,0,0,1-1.9-1.513,4.443,4.443,0,0,1-.79-2.772,4.8,4.8,0,0,1,.777-2.705,5.058,5.058,0,0,1,2.183-1.821A7.683,7.683,0,0,1,235,54.085a6.763,6.763,0,0,1,4.3,1.312,4.85,4.85,0,0,1,1.888,3.482H238.51a2.892,2.892,0,0,0-1.125-1.888,4,4,0,0,0-2.625-.817,3.8,3.8,0,0,0-2.491.79,2.7,2.7,0,0,0-.964,2.21,2.393,2.393,0,0,0,.576,1.661,3.71,3.71,0,0,0,1.42.977q.844.335,2.37.763a22.274,22.274,0,0,1,2.973,1,4.964,4.964,0,0,1,1.928,1.527,4.441,4.441,0,0,1,.8,2.8,4.915,4.915,0,0,1-.723,2.571,5.315,5.315,0,0,1-2.143,1.955,7.069,7.069,0,0,1-3.348.75,7.98,7.98,0,0,1-3.308-.656" transform="translate(-191.305 -45.24)" fill="#fc9c1d"/>
    <path id="Path_2" data-name="Path 2" d="M331.444,79.962V94.64h-2.437V92.47a4.745,4.745,0,0,1-1.942,1.754,6,6,0,0,1-2.745.63,6.578,6.578,0,0,1-3.08-.71,5.155,5.155,0,0,1-2.156-2.129,7,7,0,0,1-.79-3.455v-8.6H320.7v8.276a4.677,4.677,0,0,0,1.1,3.335,3.923,3.923,0,0,0,3,1.165,4.008,4.008,0,0,0,3.08-1.205,4.961,4.961,0,0,0,1.125-3.509V79.962Z" transform="translate(-266.241 -66.885)" fill="#fc9c1d"/>
    <path id="Path_3" data-name="Path 3" d="M419.516,79.332a6.448,6.448,0,0,1,3.335-.844,6.871,6.871,0,0,1,3.549.937,6.614,6.614,0,0,1,2.5,2.638,8.247,8.247,0,0,1,.911,3.951,8.425,8.425,0,0,1-.911,3.964,6.677,6.677,0,0,1-6.053,3.669,6.4,6.4,0,0,1-3.308-.844,6.028,6.028,0,0,1-2.183-2.1v9.669h-2.437V78.729h2.437v2.705a5.813,5.813,0,0,1,2.156-2.1m7.138,3.79a4.638,4.638,0,0,0-1.808-1.875,5,5,0,0,0-2.5-.643,4.876,4.876,0,0,0-2.478.656,4.8,4.8,0,0,0-1.821,1.9,6.466,6.466,0,0,0,0,5.785,4.8,4.8,0,0,0,1.821,1.9,4.871,4.871,0,0,0,2.478.656,4.922,4.922,0,0,0,2.5-.656,4.709,4.709,0,0,0,1.808-1.9,6.108,6.108,0,0,0,.669-2.933,5.971,5.971,0,0,0-.669-2.893" transform="translate(-347.068 -65.652)" fill="#fc9c1d"/>
    <path id="Path_4" data-name="Path 4" d="M521.223,79.332a6.448,6.448,0,0,1,3.334-.844,6.872,6.872,0,0,1,3.549.937,6.614,6.614,0,0,1,2.5,2.638,8.248,8.248,0,0,1,.911,3.951,8.426,8.426,0,0,1-.911,3.964,6.677,6.677,0,0,1-6.053,3.669,6.4,6.4,0,0,1-3.308-.844,6.029,6.029,0,0,1-2.183-2.1v9.669H516.63V78.729h2.437v2.705a5.813,5.813,0,0,1,2.156-2.1m7.138,3.79a4.638,4.638,0,0,0-1.808-1.875,5,5,0,0,0-2.5-.643,4.876,4.876,0,0,0-2.478.656,4.8,4.8,0,0,0-1.821,1.9,6.465,6.465,0,0,0,0,5.785,4.8,4.8,0,0,0,1.821,1.9,4.871,4.871,0,0,0,2.478.656,4.922,4.922,0,0,0,2.5-.656,4.71,4.71,0,0,0,1.808-1.9,6.108,6.108,0,0,0,.669-2.933,5.971,5.971,0,0,0-.669-2.893" transform="translate(-432.142 -65.652)" fill="#fc9c1d"/>
    <rect id="Rectangle_1" data-name="Rectangle 1" width="2.437" height="19.82" transform="translate(101.12 7.934)" fill="#fc9c1d"/>
    <path id="Path_5" data-name="Path 5" d="M653.352,79.962l-8.839,21.588H642l2.892-7.071L638.97,79.962h2.705l4.607,11.892,4.553-11.892Z" transform="translate(-534.475 -66.885)" fill="#fc9c1d"/>
    <path id="Path_6" data-name="Path 6" d="M744.022,65.442a4.878,4.878,0,0,1,1.339,1.661,4.832,4.832,0,0,1-.228,4.674,4.909,4.909,0,0,1-2.1,1.794,7.506,7.506,0,0,1-3.254.656h-6.964V55.559h6.7a7.581,7.581,0,0,1,3.241.629,4.59,4.59,0,0,1,2.009,1.7,4.456,4.456,0,0,1,.67,2.411,4.163,4.163,0,0,1-.9,2.745,5.024,5.024,0,0,1-2.371,1.567,3.947,3.947,0,0,1,1.862.83m-8.772-1.821h4.1a3.955,3.955,0,0,0,2.652-.8,3.1,3.1,0,0,0,0-4.446,4.043,4.043,0,0,0-2.7-.8H735.25Zm7.151,7.74a2.948,2.948,0,0,0,1.018-2.384,3.029,3.029,0,0,0-1.072-2.451,4.321,4.321,0,0,0-2.866-.9H735.25v6.589h4.312a4.278,4.278,0,0,0,2.839-.857" transform="translate(-612.972 -46.473)" fill="#fc9c1d"/>
    <path id="Path_7" data-name="Path 7" d="M836.532,79.962V94.64h-2.437V92.47a4.745,4.745,0,0,1-1.942,1.754,6,6,0,0,1-2.745.63,6.578,6.578,0,0,1-3.08-.71,5.155,5.155,0,0,1-2.156-2.129,7.005,7.005,0,0,1-.79-3.455v-8.6h2.411v8.276a4.677,4.677,0,0,0,1.1,3.335,3.923,3.923,0,0,0,3,1.165,4.008,4.008,0,0,0,3.08-1.205,4.961,4.961,0,0,0,1.125-3.509V79.962Z" transform="translate(-688.729 -66.885)" fill="#fc9c1d"/>
    <path id="Path_8" data-name="Path 8" d="M923.749,79.962,914.91,101.55h-2.518l2.893-7.071-5.919-14.517h2.705l4.607,11.892,4.553-11.892Z" transform="translate(-760.652 -66.885)" fill="#fc9c1d"/>
    <path id="Path_9" data-name="Path 9" d="M22.987,27.833,7.225,25.663A6.931,6.931,0,0,1,1.3,19.381L0,3,32.879,7.526,35.453,0l8.782,1.209a1.39,1.39,0,0,1-.379,2.754l-6.513-.9-6.9,20.17a6.9,6.9,0,0,1-7.459,4.6M3.044,6.225,4.067,19.162A4.134,4.134,0,0,0,7.6,22.908l15.763,2.17a4.117,4.117,0,0,0,4.449-2.742l4.148-12.13Z" fill="#036"/>
    <path id="Path_10" data-name="Path 10" d="M19.862,181.423a4.645,4.645,0,1,1,5.235-3.968,4.65,4.65,0,0,1-5.235,3.968m.98-7.115a2.538,2.538,0,1,0,2.168,2.86,2.54,2.54,0,0,0-2.168-2.86" transform="translate(-13.258 -144.019)" fill="#036"/>
    <path id="Path_11" data-name="Path 11" d="M103.377,192.921a4.645,4.645,0,1,1,5.235-3.968,4.65,4.65,0,0,1-5.235,3.968m.98-7.115a2.538,2.538,0,1,0,2.168,2.86,2.54,2.54,0,0,0-2.168-2.86" transform="translate(-83.115 -153.637)" fill="#036"/>
    <path id="Path_12" data-name="Path 12" d="M53.439,88.7c3.511,1.8,7.15,3.506,11.14,2.955a19,19,0,0,0,3.893-1.033l.068.092a10.421,10.421,0,0,1-11.827.54,15.135,15.135,0,0,1-3.355-2.473Z" transform="translate(-44.632 -74.195)" fill="#fc9c1d"/>
    <text id="_._in" data-name=". in" transform="translate(161.631 25.999)" fill="#036" font-size="7" font-family="Poppins-Medium, Poppins" font-weight="500"><tspan x="0" y="0">. in</tspan></text>
  </g>
</svg>
