<svg xmlns="http://www.w3.org/2000/svg" width="23.893" height="21" viewBox="0 0 23.893 21">
  <g id="values" transform="translate(0 -31)">
    <path id="Path_84737" data-name="Path 84737" d="M.7,308H3.547a.7.7,0,0,0,.7-.7V301H.7a.7.7,0,0,0-.7.7v5.6A.7.7,0,0,0,.7,308Z" transform="translate(0 -257.4)" fill="#036"/>
    <path id="Path_84738" data-name="Path 84738" d="M441.612,291.656a.7.7,0,0,0-.288-1.079,2.692,2.692,0,0,0-3,.69,2.712,2.712,0,0,1,1.324,2.38,2.443,2.443,0,0,1-.054.526C440.216,293.425,440.874,292.6,441.612,291.656Z" transform="translate(-417.867 -247.275)" fill="#036"/>
    <path id="Path_84739" data-name="Path 84739" d="M124.962,269.2A9.912,9.912,0,0,0,121,270.272V276.4a11.328,11.328,0,0,1,3.6,1.06,12.046,12.046,0,0,0,5.166,1.624c2.016,0,3.645-1.064,5.353-2.828q-.483.042-.966.042a20.725,20.725,0,0,1-5.717-.924.7.7,0,0,1-.406-.854.708.708,0,0,1,.882-.462,21.268,21.268,0,0,0,5.563.812,1.351,1.351,0,0,0,1.26-1.414,1.3,1.3,0,0,0-1.358-1.372,11.3,11.3,0,0,1-4.695-.868c-.879-.377-1.89-1.177-2.688-1.54A4.016,4.016,0,0,0,124.962,269.2Z" transform="translate(-115.353 -227.084)" fill="#036"/>
    <path id="Path_84740" data-name="Path 84740" d="M293.7,31l-1.05,2.8h3.579l-1.05-2.8Z" transform="translate(-278.993)" fill="#fc9c1d"/>
    <path id="Path_84741" data-name="Path 84741" d="M383.254,33.8l-2.595-2.595a.7.7,0,0,0-.495-.205H378.9l1.05,2.8Z" transform="translate(-361.217)" fill="#fc9c1d"/>
    <path id="Path_84742" data-name="Path 84742" d="M192.384,31.205,189.789,33.8h3.3l1.05-2.8h-1.265A.7.7,0,0,0,192.384,31.205Z" transform="translate(-180.932)" fill="#fc9c1d"/>
    <path id="Path_84743" data-name="Path 84743" d="M376.584,121h-3.341l-1.363,5.227Z" transform="translate(-354.526 -85.8)" fill="#fc9c1d"/>
    <path id="Path_84744" data-name="Path 84744" d="M293.738,127.993,295.562,121h-3.648Z" transform="translate(-278.291 -85.8)" fill="#fc9c1d"/>
    <path id="Path_84745" data-name="Path 84745" d="M189.322,121l4.7,5.227L192.663,121Z" transform="translate(-180.487 -85.8)" fill="#fc9c1d"/>
  </g>
</svg>
