<svg xmlns="http://www.w3.org/2000/svg" width="20.677" height="20.669" viewBox="0 0 20.677 20.669">
  <g id="visionary" transform="translate(0 -0.117)">
    <path id="Path_84868" data-name="Path 84868" d="M98.476,212.211a1.211,1.211,0,1,0-1.632,0l-4.4,8.885H91v1.211h2.191l3.864-7.809v6.6H95.844v1.211h3.633V221.1H98.266v-6.6l3.864,7.809h2.191V221.1h-1.442Z" transform="translate(-87.327 -201.523)" fill="#fc9c1d"/>
    <path id="Path_84869" data-name="Path 84869" d="M408.536.43l.313,1.17-1.17.314,1.567,5.848,1.17-.314.313,1.17L411.9,8.3,409.7.117Z" transform="translate(-391.223)" fill="#036"/>
    <path id="Path_84870" data-name="Path 84870" d="M2.736,151.41l-.627-2.339,1.17-.314.313,1.17,1.17-.313-.94-3.509-1.169.313.313,1.17L1.8,147.9l-.627-2.34L0,145.875l1.567,5.848Z" transform="translate(0 -139.574)" fill="#036"/>
    <path id="Path_84871" data-name="Path 84871" d="M119.239,60.594a2.412,2.412,0,1,1,4.66-1.249l4.188-1.111-1.567-5.848-10.608,2.821,1.567,5.848Z" transform="translate(-111.233 -50.158)" fill="#036"/>
  </g>
</svg>
