<svg xmlns="http://www.w3.org/2000/svg" width="22.024" height="21.5" viewBox="0 0 22.024 21.5">
  <g id="Line" transform="translate(-3 -4)">
    <path id="Path_84746" data-name="Path 84746" d="M29.678,25.814,27.554,24.66,25,35.326h5.768V27.654a2.1,2.1,0,0,0-1.091-1.841Z" transform="translate(-10.463 -9.826)" fill="#fc9c1d"/>
    <path id="Path_84747" data-name="Path 84747" d="M13.244,6.622a2.622,2.622,0,1,0-2.622,2.622,2.59,2.59,0,0,0,1.536-.524,4.72,4.72,0,0,1,.949-1.311A2.465,2.465,0,0,0,13.244,6.622Z" transform="translate(-2.378)" fill="#fc9c1d"/>
    <ellipse id="Ellipse_174" data-name="Ellipse 174" cx="4" cy="3.5" rx="4" ry="3.5" transform="translate(10 7)" fill="#fc9c1d"/>
    <path id="Path_84748" data-name="Path 84748" d="M35.244,6.622a2.622,2.622,0,1,0-5.244,0,2.465,2.465,0,0,0,.136.808,4.72,4.72,0,0,1,.949,1.29,2.591,2.591,0,0,0,1.536.524A2.622,2.622,0,0,0,35.244,6.622Z" transform="translate(-12.841)" fill="#fc9c1d"/>
    <path id="Path_84749" data-name="Path 84749" d="M9.293,15.93a4.368,4.368,0,0,1,.058-.7,3.723,3.723,0,0,1-1.106.173,3.671,3.671,0,0,1-2.1-.655l-1.783.655A2.1,2.1,0,0,0,3,17.382v7.462H6.671v-1.9a3.146,3.146,0,0,1,1.641-2.758l2.134-1.169A4.72,4.72,0,0,1,9.293,15.93Z" transform="translate(0 -5.113)" fill="#fc9c1d"/>
    <path id="Path_84750" data-name="Path 84750" d="M36.883,15.405,35.1,14.75a3.671,3.671,0,0,1-2.1.655,3.723,3.723,0,0,1-1.106-.173,4.368,4.368,0,0,1,.058.7A4.72,4.72,0,0,1,30.8,19.013l2.134,1.169a3.146,3.146,0,0,1,1.641,2.758v1.9h3.671V17.382A2.1,2.1,0,0,0,36.883,15.405Z" transform="translate(-13.222 -5.113)" fill="#fc9c1d"/>
    <path id="Path_84751" data-name="Path 84751" d="M24.049,27.524v4.447l-.524,2.2L23,31.971V27.524a.524.524,0,1,1,1.049,0Z" transform="translate(-9.512 -10.939)" fill="#fc9c1d"/>
    <path id="Path_84752" data-name="Path 84752" d="M24.049,27.524v4.447l-.524,2.2L23,31.971V27.524a.524.524,0,1,1,1.049,0Z" transform="translate(-9.512 -10.939)" fill="#fc9c1d"/>
    <path id="Path_84753" data-name="Path 84753" d="M13.091,25.814A2.1,2.1,0,0,0,12,27.654v7.672h5.768L15.215,24.66Z" transform="translate(-4.281 -9.826)" fill="#fc9c1d"/>
  </g>
</svg>
