<svg xmlns="http://www.w3.org/2000/svg" width="21.501" height="21.5" viewBox="0 0 21.501 21.5">
  <g id="Career" transform="translate(-4 -4)">
    <path id="Path_84754" data-name="Path 84754" d="M30.455,6.3H27.384A.384.384,0,0,1,27,5.92V4.384A.384.384,0,0,1,27.384,4h3.071a.384.384,0,0,1,.384.384V5.92A.384.384,0,0,1,30.455,6.3Zm-2.687-.768h2.3V4.768h-2.3Z" transform="translate(-14.17)" fill="#fc9c1d"/>
    <path id="Path_84755" data-name="Path 84755" d="M26.143,19.221a1.153,1.153,0,0,1-1.152,1.152h-.768a1.153,1.153,0,0,1-1.152-1.152H21.536A2.67,2.67,0,0,1,20,18.736v3.941a.384.384,0,0,0,.384.384H28.83a.384.384,0,0,0,.384-.384V18.736a2.67,2.67,0,0,1-1.536.485Z" transform="translate(-9.857 -9.079)" fill="#fc9c1d"/>
    <path id="Path_84756" data-name="Path 84756" d="M28.6,8H19.384A.384.384,0,0,0,19,8.384V9.92a1.922,1.922,0,0,0,1.92,1.92h1.536a1.153,1.153,0,0,1,1.152-1.152h.768a1.153,1.153,0,0,1,1.152,1.152h1.536a1.922,1.922,0,0,0,1.92-1.92V8.384A.384.384,0,0,0,28.6,8Z" transform="translate(-9.241 -2.464)" fill="#fc9c1d"/>
    <rect id="Rectangle_21485" data-name="Rectangle 21485" width="1.536" height="1.536" rx="0.768" transform="translate(13.982 8.991)" fill="#fc9c1d"/>
    <rect id="Rectangle_21486" data-name="Rectangle 21486" width="3.839" height="8.446" rx="1" transform="translate(4 17.054)" fill="#036"/>
    <path id="Path_84757" data-name="Path 84757" d="M32.477,31.4a2.326,2.326,0,0,0-3.106-.17l-3.86,3.088a3.449,3.449,0,0,1,1.24,2.648,1.922,1.922,0,0,1-1.92,1.92H20.223a.384.384,0,1,1,0-.768H24.83a1.153,1.153,0,0,0,1.152-1.152,2.683,2.683,0,0,0-1.121-2.179,2.617,2.617,0,0,0-.3-.19c-.03-.016-.061-.029-.092-.044a2.612,2.612,0,0,0-.259-.11c-.032-.012-.064-.025-.1-.036a2.664,2.664,0,0,0-.343-.084l-.094-.014a2.725,2.725,0,0,0-.382-.03H21.1a6.492,6.492,0,0,0-3.179-.768,7.133,7.133,0,0,0-1.92.257v7.421h8.193A3.451,3.451,0,0,0,26.807,40l5.744-6.65A1.435,1.435,0,0,0,32.477,31.4Z" transform="translate(-7.393 -16.462)" fill="#036"/>
  </g>
</svg>
