<svg xmlns="http://www.w3.org/2000/svg" width="21.667" height="21.667" viewBox="0 0 21.667 21.667">
  <g id="_x30_3" transform="translate(-2 -2)">
    <path id="Path_84786" data-name="Path 84786" d="M24.319,19.082a.775.775,0,0,0-.692,0s-3.143,1.582-3.168,1.6l3.514,1.757,3.514-1.757c-.025-.016-3.168-1.6-3.168-1.6Z" transform="translate(-4.175 -3.845)" fill="#fc9c1d"/>
    <path id="Path_84787" data-name="Path 84787" d="M20,25.882a.774.774,0,0,0,.428.692L23.482,28.2V23.8L20,22.059Z" transform="translate(-4.071 -4.537)" fill="#fc9c1d"/>
    <path id="Path_84788" data-name="Path 84788" d="M25.5,23.8v4.4l3.054-1.629a.774.774,0,0,0,.428-.692V22.059Z" transform="translate(-5.315 -4.537)" fill="#fc9c1d"/>
    <path id="Path_84789" data-name="Path 84789" d="M12.319,19.082a.775.775,0,0,0-.692,0s-3.143,1.582-3.168,1.6l3.514,1.757,3.514-1.757c-.025-.016-3.168-1.6-3.168-1.6Z" transform="translate(-1.461 -3.845)" fill="#fc9c1d"/>
    <path id="Path_84790" data-name="Path 84790" d="M8,25.882a.774.774,0,0,0,.428.692L11.482,28.2V23.8L8,22.059Z" transform="translate(-1.357 -4.537)" fill="#fc9c1d"/>
    <path id="Path_84791" data-name="Path 84791" d="M13.5,28.2l3.054-1.629a.774.774,0,0,0,.428-.692V22.059L13.5,23.8Z" transform="translate(-2.601 -4.537)" fill="#fc9c1d"/>
    <path id="Path_84792" data-name="Path 84792" d="M18.319,9.082a.775.775,0,0,0-.692,0s-3.143,1.582-3.168,1.6l3.514,1.757,3.514-1.757c-.025-.016-3.168-1.6-3.168-1.6Z" transform="translate(-2.818 -1.583)" fill="#fc9c1d"/>
    <path id="Path_84793" data-name="Path 84793" d="M14,15.882a.774.774,0,0,0,.428.692L17.482,18.2V13.8L14,12.059Z" transform="translate(-2.714 -2.275)" fill="#fc9c1d"/>
    <path id="Path_84794" data-name="Path 84794" d="M5.869,21.345v-4.7s.767-.5,3.949-2.1a1.474,1.474,0,0,1,.694-.164V8.908s.767-.5,3.949-2.1a1.548,1.548,0,0,1,1.386,0l.855.43V2.774A.774.774,0,0,0,15.929,2H13.156l-.721,2.884a.387.387,0,0,1-.375.293H6.643a.387.387,0,0,1-.375-.293L5.546,2H2.774A.774.774,0,0,0,2,2.774V22.893a.774.774,0,0,0,.774.774H8.481L6.706,22.72a1.531,1.531,0,0,1-.837-1.375ZM5.1,7.417A1.548,1.548,0,1,1,3.548,8.964,1.549,1.549,0,0,1,5.1,7.417Zm-1.548,6.19A1.548,1.548,0,1,1,5.1,15.155,1.549,1.549,0,0,1,3.548,13.607Z" transform="translate(0 0)" fill="#036"/>
    <path id="Path_84795" data-name="Path 84795" d="M22.982,15.882V12.059L19.5,13.8v4.4l3.054-1.629a.774.774,0,0,0,.428-.692Z" transform="translate(-3.958 -2.275)" fill="#fc9c1d"/>
    <path id="Path_84796" data-name="Path 84796" d="M13.027,4.4l.6-2.4H7.614l.6,2.4Z" transform="translate(-1.27 0)" fill="#036"/>
  </g>
</svg>
