<svg xmlns="http://www.w3.org/2000/svg" width="17" height="22.333" viewBox="0 0 17 22.333">
  <g id="Food_Book" data-name="Food Book" transform="translate(-8)">
    <path id="Path_84797" data-name="Path 84797" d="M10.307,54.307a1.046,1.046,0,0,0,.74,1.787H16.63v-.7H11.047a.349.349,0,0,1,0-.7H16.63V54H11.047a1.044,1.044,0,0,0-.74.307Z" transform="translate(-1.302 -35.156)" fill="#fc9c1d"/>
    <rect id="Rectangle_21496" data-name="Rectangle 21496" width="5" height="1" transform="translate(20 19)" fill="#fc9c1d"/>
    <rect id="Rectangle_21497" data-name="Rectangle 21497" width="5" height="1" transform="translate(20 20)" fill="#fc9c1d"/>
    <path id="Path_84798" data-name="Path 84798" d="M31,57.141a.341.341,0,0,0,.192.311.348.348,0,0,0,.366-.031l1.186-.89,1.186.89a.359.359,0,0,0,.209.07.317.317,0,0,0,.157-.038.341.341,0,0,0,.192-.311V54H31Z" transform="translate(-14.974 -35.156)" fill="#fc9c1d"/>
    <path id="Path_84799" data-name="Path 84799" d="M10.094,18.146V0H9.745A1.745,1.745,0,0,0,8,1.745V19.891a1.745,1.745,0,0,1,1.745-1.745Z" fill="#fc9c1d"/>
    <path id="Path_84800" data-name="Path 84800" d="M30.832,12a2.8,2.8,0,0,0-2.77,2.441H33.6A2.8,2.8,0,0,0,30.832,12Zm0,1.045a1.753,1.753,0,0,0-1.511.873.349.349,0,1,1-.6-.35,2.453,2.453,0,0,1,2.115-1.221.349.349,0,1,1,0,.7Z" transform="translate(-13.061 -7.816)" fill="#036"/>
    <path id="Path_84801" data-name="Path 84801" d="M29.609,0H16V18.146H29.958V.349A.349.349,0,0,0,29.609,0ZM18.443,7.677A1.048,1.048,0,0,1,19.49,6.63h.018a3.492,3.492,0,0,1,1.734-2.672c0-.04-.007-.078-.007-.119a1.745,1.745,0,0,1,3.49,0c0,.041,0,.08-.007.119A3.493,3.493,0,0,1,26.451,6.63h.018a1.048,1.048,0,0,1,1.047,1.047V8.724a.349.349,0,0,1-.349.349H18.792a.349.349,0,0,1-.349-.349Zm.349,8.375H17.745a.349.349,0,0,1,0-.7h1.047a.349.349,0,0,1,0,.7Zm0-1.745H17.745a.349.349,0,0,1,0-.7h1.047a.349.349,0,0,1,0,.7Zm0-1.745H17.745a.349.349,0,0,1,0-.7h1.047a.349.349,0,0,1,0,.7Zm9.422,3.49H19.839a.349.349,0,1,1,0-.7h8.375a.349.349,0,1,1,0,.7Zm0-1.745H19.839a.349.349,0,0,1,0-.7h8.375a.349.349,0,0,1,0,.7Zm0-1.745H19.839a.349.349,0,1,1,0-.7h8.375a.349.349,0,0,1,0,.7Zm0-1.745H17.745a.349.349,0,0,1,0-.7H28.214a.349.349,0,0,1,0,.7Z" transform="translate(-5.208)" fill="#036"/>
    <path id="Path_84802" data-name="Path 84802" d="M34.081,8.7a3.876,3.876,0,0,1,1.029.154,1.047,1.047,0,0,0-2.058,0A3.882,3.882,0,0,1,34.081,8.7Z" transform="translate(-16.31 -5.208)" fill="#036"/>
    <path id="Path_84803" data-name="Path 84803" d="M32.677,21.349A.349.349,0,0,0,32.328,21H25.349a.349.349,0,0,0-.349.349v.7h7.677Z" transform="translate(-11.068 -13.672)" fill="#036"/>
  </g>
</svg>
