<svg xmlns="http://www.w3.org/2000/svg" width="23.753" height="16.966" viewBox="0 0 23.753 16.966">
  <g id="facetime-button" transform="translate(0 -73.09)">
    <path id="Path_84759" data-name="Path 84759" d="M23.236,73.58a.923.923,0,0,0-.331-.066.788.788,0,0,0-.6.252l-5.342,5.329V76.907a3.824,3.824,0,0,0-3.818-3.817H3.817a3.677,3.677,0,0,0-2.7,1.12A3.677,3.677,0,0,0,0,76.907v9.331a3.677,3.677,0,0,0,1.12,2.7,3.677,3.677,0,0,0,2.7,1.12h9.331a3.824,3.824,0,0,0,3.818-3.817v-2.2l5.342,5.342a.788.788,0,0,0,.6.252.925.925,0,0,0,.331-.066.792.792,0,0,0,.517-.782V74.363A.793.793,0,0,0,23.236,73.58Z" fill="#036"/>
  </g>
</svg>
