<svg xmlns="http://www.w3.org/2000/svg" width="20.823" height="21.5" viewBox="0 0 20.823 21.5">
  <path id="inspiration" d="M24.759,10.344a6.608,6.608,0,0,1,3.377,12.287,1.308,1.308,0,0,0-.654,1.151v.56H22.036v-.56a1.308,1.308,0,0,0-.654-1.151,6.608,6.608,0,0,1,3.377-12.287Zm1.748,16.733h-3.5A1.344,1.344,0,0,0,24.284,28h.95A1.344,1.344,0,0,0,26.507,27.077Zm2.735-17.17a.387.387,0,1,1-.67-.388l.857-1.484a.387.387,0,1,1,.67.388Zm-8.3-.388a.387.387,0,1,1-.67.388l-.857-1.484a.387.387,0,0,1,.67-.388Zm4.2-.918a.388.388,0,1,1-.776,0V6.888a.388.388,0,0,1,.776,0Zm6.6,12.781a.387.387,0,1,1,.388-.67l1.484.857a.387.387,0,0,1-.388.67Zm1.332-4.09a.386.386,0,0,1,0-.773H34.8a.386.386,0,0,1,0,.773Zm-.944-4.207a.387.387,0,1,1-.388-.67l1.484-.857a.387.387,0,0,1,.388.67Zm-14.76,7.628a.387.387,0,1,1,.388.67l-1.484.857a.387.387,0,1,1-.388-.67Zm-.918-4.2a.388.388,0,0,1,0,.776H14.748a.388.388,0,0,1,0-.776Zm1.3-4.1a.386.386,0,1,1-.385.67L15.9,12.228a.386.386,0,1,1,.385-.67Zm6.994,2.3A2.24,2.24,0,1,0,27,16.951,2.24,2.24,0,0,0,24.759,14.711Zm2.723,10.407v.276a.91.91,0,0,1-.908.908h-3.63a.91.91,0,0,1-.908-.908v-.276ZM24.04,12.643v.722a3.637,3.637,0,0,0-1.309.542l-.51-.51L21.2,14.413l.51.51a3.635,3.635,0,0,0-.542,1.309H20.45V17.67h.722a3.637,3.637,0,0,0,.542,1.309l-.51.51,1.017,1.017.51-.51a3.635,3.635,0,0,0,1.309.542v.722h1.438v-.722A3.637,3.637,0,0,0,26.787,20l.51.51,1.017-1.017-.51-.51a3.638,3.638,0,0,0,.542-1.309h.722V16.232h-.722a3.638,3.638,0,0,0-.543-1.309l.51-.51L27.3,13.4l-.51.51a3.638,3.638,0,0,0-1.309-.542v-.722Z" transform="translate(-14.36 -6.5)" fill="#036" fill-rule="evenodd"/>
</svg>
