<svg xmlns="http://www.w3.org/2000/svg" width="16" height="16" viewBox="0 0 27.705 19.498">
  <g id="XMLID_822_" transform="translate(0 -45.917)">
    <path id="XMLID_823_" d="M26.625,47.591c-1-1.189-2.846-1.674-6.373-1.674H7.452c-3.607,0-5.485.516-6.481,1.782C0,48.933,0,50.751,0,53.268v4.8c0,4.875,1.153,7.351,7.452,7.351h12.8c3.058,0,4.752-.428,5.849-1.477,1.124-1.076,1.6-2.832,1.6-5.874v-4.8C27.705,50.614,27.63,48.785,26.625,47.591Zm-8.838,8.737-5.813,3.038a.894.894,0,0,1-1.308-.792V52.518a.894.894,0,0,1,1.306-.793l5.813,3.018a.894.894,0,0,1,0,1.585Z" fill="#fff"/>
  </g>
</svg>
